<svg xmlns="http://www.w3.org/2000/svg" width="108" height="21" fill="none" viewBox="0 0 108 21"><path fill="#fff" fill-rule="evenodd" d="M103.699 3.538v16.566h-2.11V3.538h-3.75V1.697h9.612v1.84h-3.752Zm-8.123 9.742a3.05 3.05 0 0 1-1.383 1.105c-.555.219-1.216.328-1.982.328-.36 0-.766-.026-1.219-.079a10.105 10.105 0 0 1-1.125-.184v5.654h-2.11V1.96a10.014 10.014 0 0 1 1.793-.408 15.102 15.102 0 0 1 1.958-.118c.938 0 1.735.11 2.391.329.657.219 1.188.583 1.595 1.09.406.51.703 1.184.89 2.026.188.841.282 1.884.282 3.129 0 1.28-.09 2.349-.27 3.208-.18.859-.453 1.547-.82 2.064ZM94.38 5.641c-.117-.63-.3-1.13-.55-1.499a2.022 2.022 0 0 0-.95-.775c-.383-.15-.84-.224-1.372-.224h-1.641v9.73h1.641c.532 0 .989-.075 1.372-.224.383-.149.699-.407.95-.776.25-.368.433-.867.55-1.498.117-.632.176-1.42.176-2.367 0-.947-.059-1.736-.176-2.367Zm-11.898 9.73h-4.69l-1.054 4.733h-2.11l3.985-18.407h3.048l3.986 18.407h-2.11l-1.055-4.733ZM80.184 4.326h-.093l-1.947 9.204h3.986l-1.946-9.204ZM70.056 6.43h-.117l-3.4 11.307h-2.11L61.03 6.43h-.116l-.704 13.674H58.1l.938-18.407h2.579l3.822 12.622h.093l3.822-12.622h2.579l.938 18.407h-2.11L70.055 6.43ZM54.301 18.395c-.437.718-.965 1.227-1.582 1.525-.618.298-1.325.447-2.122.447-.797 0-1.504-.15-2.122-.447-.617-.298-1.145-.807-1.582-1.525-.438-.72-.77-1.688-.997-2.906-.226-1.218-.34-2.748-.34-4.589 0-1.84.114-3.37.34-4.588.227-1.219.559-2.187.997-2.906.437-.719.965-1.227 1.582-1.525.618-.298 1.325-.447 2.122-.447.797 0 1.504.149 2.122.447.617.298 1.145.806 1.582 1.525.438.719.77 1.687.997 2.906.226 1.218.34 2.748.34 4.588 0 1.841-.114 3.37-.34 4.589-.227 1.218-.56 2.187-.997 2.906Zm-1.02-11.386c-.164-1.017-.379-1.824-.644-2.42-.266-.596-.579-1.008-.938-1.235a2.035 2.035 0 0 0-1.102-.342c-.375 0-.742.114-1.102.342-.36.227-.672.64-.938 1.235-.266.596-.48 1.403-.645 2.42-.164 1.016-.246 2.314-.246 3.891 0 1.578.082 2.875.247 3.892.164 1.017.379 1.823.644 2.42.266.595.579 1.007.938 1.235.36.228.727.342 1.102.342.375 0 .742-.114 1.102-.342.36-.228.672-.64.938-1.236.265-.596.48-1.402.644-2.419.165-1.017.247-2.314.247-3.892 0-1.577-.082-2.875-.247-3.891Zm-12.648 4.68h-4.924v8.415H33.6V1.697h2.11v8.152h4.924V1.697h2.11v18.407h-2.11v-8.415Zm-11.136 8.415-2.93-7.889-2.93 7.889h-2.11l3.516-9.467-3.165-8.94h2.11l2.579 7.363 2.579-7.363h2.11l-3.165 8.94 3.517 9.467h-2.11ZM12.265 1.697h7.972v1.84h-5.861v6.049h5.157v1.84h-5.157v6.837h5.86v1.84h-7.97V1.698ZM6.64 20.104h-2.11V3.538H.778V1.697h9.612v1.84H6.639v16.567Z" clip-rule="evenodd"/></svg>